<?xml version="1.0" standalone="no"?>
<!DOCTYPE svg PUBLIC "-//W3C//DTD SVG 20010904//EN"
 "http://www.w3.org/TR/2001/REC-SVG-20010904/DTD/svg10.dtd">
<svg version="1.0" xmlns="http://www.w3.org/2000/svg"
 width="1000.000000pt" height="1000.000000pt" viewBox="0 0 1000.000000 1000.000000"
 preserveAspectRatio="xMidYMid meet">

<g transform="translate(0.000000,1000.000000) scale(0.100000,-0.100000)"
fill="#FFFFFF" stroke="none">
<path d="M5110 8760 c-298 -21 -614 -85 -866 -175 -155 -56 -413 -179 -544
-260 -309 -192 -577 -451 -778 -751 -126 -188 -254 -449 -327 -664 l-32 -95
-827 -3 -826 -2 0 -345 0 -345 1980 0 1980 0 0 345 0 345 -715 0 c-406 0 -715
4 -715 9 0 20 53 147 101 244 135 271 339 503 591 674 290 198 614 299 1032
322 455 26 862 -72 1151 -277 108 -77 266 -237 347 -352 86 -121 202 -348 264
-515 26 -71 49 -132 51 -134 3 -5 787 180 796 188 4 4 -13 66 -37 138 -162
473 -421 853 -775 1138 -184 147 -461 298 -699 379 -322 110 -765 163 -1152
136z"/>
<path d="M2785 5413 c-610 -37 -1195 -255 -1757 -655 l-128 -91 0 -319 c0
-175 2 -318 5 -318 3 0 100 48 217 106 284 142 430 205 634 274 243 83 731
188 754 164 4 -5 18 -45 30 -89 151 -562 415 -1049 750 -1385 282 -283 600
-470 1003 -592 183 -55 429 -98 684 -119 209 -17 642 -7 805 20 556 90 988
299 1357 656 329 319 565 729 717 1249 21 69 36 128 33 129 -6 6 -783 198
-805 200 -15 2 -22 -12 -37 -68 -88 -336 -166 -524 -312 -745 -314 -476 -851
-750 -1471 -750 -344 0 -644 69 -936 215 -367 183 -616 438 -794 810 -82 173
-178 445 -162 461 11 10 300 -51 438 -93 187 -56 553 -204 741 -299 41 -20
129 -63 197 -95 l122 -58 0 319 0 319 -99 75 c-468 355 -975 580 -1464 651
-111 16 -374 36 -437 33 -19 -1 -57 -3 -85 -5z"/>
</g>
</svg>
